<?xml version="1.0" encoding="UTF-8" standalone="no"?>
<!-- Created with Inkscape (http://www.inkscape.org/) -->

<svg
   width="150mm"
   height="100mm"
   viewBox="0 0 150 100"
   version="1.1"
   id="svg1"
   inkscape:version="1.4 (e7c3feb100, 2024-10-09)"
   sodipodi:docname="ravni_zarek.svg"
   inkscape:export-filename="ravni_zarek.pdf"
   inkscape:export-xdpi="96"
   inkscape:export-ydpi="96"
   xmlns:inkscape="http://www.inkscape.org/namespaces/inkscape"
   xmlns:sodipodi="http://sodipodi.sourceforge.net/DTD/sodipodi-0.dtd"
   xmlns="http://www.w3.org/2000/svg"
   xmlns:svg="http://www.w3.org/2000/svg">
  <sodipodi:namedview
     id="namedview1"
     pagecolor="#ffffff"
     bordercolor="#000000"
     borderopacity="0.25"
     inkscape:showpageshadow="2"
     inkscape:pageopacity="0.0"
     inkscape:pagecheckerboard="0"
     inkscape:deskcolor="#d1d1d1"
     inkscape:document-units="mm"
     inkscape:zoom="2.072124"
     inkscape:cx="201.96668"
     inkscape:cy="126.19901"
     inkscape:window-width="1276"
     inkscape:window-height="1372"
     inkscape:window-x="3200"
     inkscape:window-y="42"
     inkscape:window-maximized="1"
     inkscape:current-layer="layer1" />
  <defs
     id="defs1">
    <marker
       style="overflow:visible"
       id="marker17"
       refX="0"
       refY="0"
       orient="auto-start-reverse"
       inkscape:stockid="Triangle arrow"
       markerWidth="1"
       markerHeight="1"
       viewBox="0 0 1 1"
       inkscape:isstock="true"
       inkscape:collect="always"
       preserveAspectRatio="xMidYMid">
      <path
         transform="scale(0.5)"
         style="fill:context-stroke;fill-rule:evenodd;stroke:context-stroke;stroke-width:1pt"
         d="M 5.77,0 -2.88,5 V -5 Z"
         id="path17" />
    </marker>
    <marker
       style="overflow:visible"
       id="Triangle"
       refX="0"
       refY="0"
       orient="auto-start-reverse"
       inkscape:stockid="Triangle arrow"
       markerWidth="1"
       markerHeight="1"
       viewBox="0 0 1 1"
       inkscape:isstock="true"
       inkscape:collect="always"
       preserveAspectRatio="xMidYMid">
      <path
         transform="scale(0.5)"
         style="fill:context-stroke;fill-rule:evenodd;stroke:context-stroke;stroke-width:1pt"
         d="M 5.77,0 -2.88,5 V -5 Z"
         id="path135" />
    </marker>
    <g
       id="g2674">
      <g
         id="g5985">
        <path
           d="m 4.75,-2.359375 c 0,-1.5625 -0.921875,-2.046875 -1.65625,-2.046875 -1.375,0 -2.6875,1.421875 -2.6875,2.828125 0,0.9375 0.59375,1.6875 1.625,1.6875 0.625,0 1.34375,-0.234375 2.09375,-0.84375 0.125,0.53125 0.453125,0.84375 0.90625,0.84375 0.53125,0 0.84375,-0.546875 0.84375,-0.703125 0,-0.078125 -0.0625,-0.109375 -0.125,-0.109375 -0.0625,0 -0.09375,0.03125 -0.125,0.109375 -0.1875,0.484375 -0.546875,0.484375 -0.5625,0.484375 -0.3125,0 -0.3125,-0.78125 -0.3125,-1.015625 0,-0.203125 0,-0.234375 0.109375,-0.34375 C 5.796875,-2.65625 6,-3.8125 6,-3.8125 6,-3.84375 5.984375,-3.921875 5.875,-3.921875 c -0.09375,0 -0.09375,0.03125 -0.140625,0.21875 -0.1875,0.625 -0.515625,1.375 -0.984375,1.96875 z m -0.65625,1.375 c -0.890625,0.765625 -1.65625,0.875 -2.046875,0.875 -0.59375,0 -0.90625,-0.453125 -0.90625,-1.09375 0,-0.484375 0.265625,-1.5625 0.578125,-2.0625 C 2.1875,-4 2.734375,-4.1875 3.078125,-4.1875 c 0.984375,0 0.984375,1.3125 0.984375,2.078125 0,0.375 0,0.953125 0.03125,1.125 z m 0,0"
           id="path7563" />
      </g>
      <g
         id="g1948">
        <path
           d="m 6.84375,-3.265625 c 0.15625,0 0.34375,0 0.34375,-0.1875 C 7.1875,-3.65625 7,-3.65625 6.859375,-3.65625 h -5.96875 c -0.140625,0 -0.328125,0 -0.328125,0.203125 0,0.1875 0.1875,0.1875 0.328125,0.1875 z m 0.015625,1.9375 c 0.140625,0 0.328125,0 0.328125,-0.203125 0,-0.1875 -0.1875,-0.1875 -0.34375,-0.1875 H 0.890625 c -0.140625,0 -0.328125,0 -0.328125,0.1875 0,0.203125 0.1875,0.203125 0.328125,0.203125 z m 0,0"
           id="path1367" />
      </g>
      <g
         id="g6565">
        <path
           d="m 1.265625,-0.765625 1.0625,-1.03125 c 1.546875,-1.375 2.140625,-1.90625 2.140625,-2.90625 0,-1.140625 -0.890625,-1.9375 -2.109375,-1.9375 -1.125,0 -1.859375,0.921875 -1.859375,1.8125 0,0.546875 0.5,0.546875 0.53125,0.546875 0.171875,0 0.515625,-0.109375 0.515625,-0.53125 0,-0.25 -0.1875,-0.515625 -0.53125,-0.515625 -0.078125,0 -0.09375,0 -0.125,0.015625 0.21875,-0.65625 0.765625,-1.015625 1.34375,-1.015625 0.90625,0 1.328125,0.8125 1.328125,1.625 C 3.5625,-3.90625 3.078125,-3.125 2.515625,-2.5 l -1.90625,2.125 C 0.5,-0.265625 0.5,-0.234375 0.5,0 H 4.203125 L 4.46875,-1.734375 H 4.234375 C 4.171875,-1.4375 4.109375,-1 4,-0.84375 3.9375,-0.765625 3.28125,-0.765625 3.0625,-0.765625 Z m 0,0"
           id="path5096" />
      </g>
      <g
         id="g1583">
        <path
           d="m 4.46875,-2 c 0,-1.1875 -0.8125,-2.1875 -1.890625,-2.1875 -0.46875,0 -0.90625,0.15625 -1.265625,0.515625 V -5.625 c 0.203125,0.0625 0.53125,0.125 0.84375,0.125 1.234375,0 1.9375,-0.90625 1.9375,-1.03125 0,-0.0625 -0.03125,-0.109375 -0.109375,-0.109375 0,0 -0.03125,0 -0.078125,0.03125 C 3.703125,-6.515625 3.21875,-6.3125 2.546875,-6.3125 2.15625,-6.3125 1.6875,-6.390625 1.21875,-6.59375 1.140625,-6.625 1.125,-6.625 1.109375,-6.625 1,-6.625 1,-6.546875 1,-6.390625 V -3.4375 c 0,0.171875 0,0.25 0.140625,0.25 0.078125,0 0.09375,-0.015625 0.140625,-0.078125 C 1.390625,-3.421875 1.75,-3.96875 2.5625,-3.96875 c 0.515625,0 0.765625,0.453125 0.84375,0.640625 0.15625,0.375 0.1875,0.75 0.1875,1.25 0,0.359375 0,0.953125 -0.25,1.375 C 3.109375,-0.3125 2.734375,-0.0625 2.28125,-0.0625 c -0.71875,0 -1.296875,-0.53125 -1.46875,-1.109375 0.03125,0 0.0625,0.015625 0.171875,0.015625 0.328125,0 0.5,-0.25 0.5,-0.484375 0,-0.25 -0.171875,-0.5 -0.5,-0.5 C 0.84375,-2.140625 0.5,-2.0625 0.5,-1.609375 0.5,-0.75 1.1875,0.21875 2.296875,0.21875 3.453125,0.21875 4.46875,-0.734375 4.46875,-2 Z m 0,0"
           id="path3815" />
      </g>
      <g
         id="g4720">
        <path
           d="m 3.53125,-1.734375 c 0,-0.84375 -0.671875,-1.5 -1.5,-1.5 -0.828125,0 -1.5,0.671875 -1.5,1.484375 0,0.84375 0.6875,1.5 1.5,1.5 0.84375,0 1.5,-0.671875 1.5,-1.484375 z m -1.5,1.140625 C 1.375,-0.59375 0.875,-1.125 0.875,-1.734375 c 0,-0.65625 0.515625,-1.171875 1.15625,-1.171875 0.65625,0 1.15625,0.53125 1.15625,1.15625 0,0.65625 -0.515625,1.15625 -1.15625,1.15625 z m 0,0"
           id="path2309" />
      </g>
    </g>
  </defs>
  <g
     inkscape:label="Layer 1"
     inkscape:groupmode="layer"
     id="layer1">
    <rect
       style="fill:#000000;fill-opacity:1;fill-rule:evenodd;stroke-width:0.264583"
       id="rect1"
       width="0.45144176"
       height="17.786806"
       x="115.83996"
       y="8.5773935" />
    <rect
       style="fill:#000000;fill-opacity:1;fill-rule:evenodd;stroke-width:0.264583"
       id="rect2"
       width="0.45144176"
       height="17.786806"
       x="61.176308"
       y="-60.351509"
       transform="rotate(52.693185)" />
    <rect
       style="fill:#000000;fill-opacity:1;fill-rule:evenodd;stroke-width:0.264583"
       id="rect3"
       width="0.45144176"
       height="17.786806"
       x="38.247688"
       y="-30.260822"
       transform="rotate(52.693185)" />
    <rect
       style="fill:#000000;fill-opacity:1;fill-rule:evenodd;stroke-width:0.264583"
       id="rect4"
       width="12.911234"
       height="0.36115342"
       x="25.718468"
       y="49.178944"
       transform="rotate(-21.023932)" />
    <rect
       style="fill:none;fill-opacity:1;fill-rule:evenodd;stroke:#000000;stroke-width:0.264583;stroke-opacity:1"
       id="rect5"
       width="3.8823991"
       height="7.1327796"
       x="29.962021"
       y="49.585239"
       transform="rotate(-21.023932)" />
    <rect
       style="fill:#000000;fill-opacity:1;fill-rule:evenodd;stroke-width:0.264583"
       id="rect6"
       width="12.911234"
       height="0.36115342"
       x="72.951195"
       y="15.089013"
       transform="rotate(12.689274)" />
    <rect
       style="fill:none;fill-opacity:1;fill-rule:evenodd;stroke:#000000;stroke-width:0.264583;stroke-opacity:1"
       id="rect7"
       width="3.8823991"
       height="7.1327796"
       x="77.194748"
       y="15.495309"
       transform="rotate(12.689274)" />
    <rect
       style="fill:#000000;fill-opacity:1;fill-rule:evenodd;stroke-width:0.264583"
       id="rect8"
       width="0.45144176"
       height="17.786806"
       x="72.411255"
       y="-71.86953"
       transform="rotate(90)" />
    <path
       style="fill:none;fill-opacity:1;stroke:#ff0000;stroke-width:0.192;stroke-opacity:1;stroke-dasharray:0.192,0.192;stroke-dashoffset:0"
       d="M 116.02053,17.786806 40.178317,17.606229 63.201848,72.682126"
       id="path8" />
    <path
       style="fill:none;fill-opacity:1;stroke:#ff0000;stroke-width:0.192;stroke-dasharray:0.192, 0.192;stroke-dashoffset:0;stroke-opacity:1"
       d="M 78.280002,17.606229 63.201848,72.501547"
       id="path9" />
    <path
       style="fill:none;fill-opacity:1;stroke:#000000;stroke-width:0.192;stroke-dasharray:none;stroke-dashoffset:0;stroke-opacity:1"
       d="m 57.333104,58.68743 c 2.284324,-2.923809 6.311879,-3.802476 10.022009,-1.444612"
       id="path10"
       sodipodi:nodetypes="cc" />
    <g
       inkscape:label=""
       transform="matrix(0.56548251,0,0,0.56548251,59.048609,53.13471)"
       id="g15">
      <g
         fill="#000000"
         fill-opacity="1"
         id="g6"
         transform="matrix(0.352778,0,0,0.352778,-0.846402,-0.706482)">
        <g
           id="use5"
           transform="translate(1.993,8.8520002)">
          <path
             d="m 4.75,-2.359375 c 0,-1.5625 -0.921875,-2.046875 -1.65625,-2.046875 -1.375,0 -2.6875,1.421875 -2.6875,2.828125 0,0.9375 0.59375,1.6875 1.625,1.6875 0.625,0 1.34375,-0.234375 2.09375,-0.84375 0.125,0.53125 0.453125,0.84375 0.90625,0.84375 0.53125,0 0.84375,-0.546875 0.84375,-0.703125 0,-0.078125 -0.0625,-0.109375 -0.125,-0.109375 -0.0625,0 -0.09375,0.03125 -0.125,0.109375 -0.1875,0.484375 -0.546875,0.484375 -0.5625,0.484375 -0.3125,0 -0.3125,-0.78125 -0.3125,-1.015625 0,-0.203125 0,-0.234375 0.109375,-0.34375 C 5.796875,-2.65625 6,-3.8125 6,-3.8125 6,-3.84375 5.984375,-3.921875 5.875,-3.921875 c -0.09375,0 -0.09375,0.03125 -0.140625,0.21875 -0.1875,0.625 -0.515625,1.375 -0.984375,1.96875 z m -0.65625,1.375 c -0.890625,0.765625 -1.65625,0.875 -2.046875,0.875 -0.59375,0 -0.90625,-0.453125 -0.90625,-1.09375 0,-0.484375 0.265625,-1.5625 0.578125,-2.0625 C 2.1875,-4 2.734375,-4.1875 3.078125,-4.1875 c 0.984375,0 0.984375,1.3125 0.984375,2.078125 0,0.375 0,0.953125 0.03125,1.125 z m 0,0"
             id="path11" />
        </g>
      </g>
      <g
         fill="#000000"
         fill-opacity="1"
         id="g7"
         transform="matrix(0.352778,0,0,0.352778,-0.846402,-0.706482)">
        <g
           id="use6"
           transform="translate(11.17,8.8520002)">
          <path
             d="m 6.84375,-3.265625 c 0.15625,0 0.34375,0 0.34375,-0.1875 C 7.1875,-3.65625 7,-3.65625 6.859375,-3.65625 h -5.96875 c -0.140625,0 -0.328125,0 -0.328125,0.203125 0,0.1875 0.1875,0.1875 0.328125,0.1875 z m 0.015625,1.9375 c 0.140625,0 0.328125,0 0.328125,-0.203125 0,-0.1875 -0.1875,-0.1875 -0.34375,-0.1875 H 0.890625 c -0.140625,0 -0.328125,0 -0.328125,0.1875 0,0.203125 0.1875,0.203125 0.328125,0.203125 z m 0,0"
             id="path12" />
        </g>
      </g>
      <g
         fill="#000000"
         fill-opacity="1"
         id="g8"
         transform="matrix(0.352778,0,0,0.352778,-0.846402,-0.706482)">
        <g
           id="use7"
           transform="translate(21.688513,8.8520002)">
          <path
             d="m 1.265625,-0.765625 1.0625,-1.03125 c 1.546875,-1.375 2.140625,-1.90625 2.140625,-2.90625 0,-1.140625 -0.890625,-1.9375 -2.109375,-1.9375 -1.125,0 -1.859375,0.921875 -1.859375,1.8125 0,0.546875 0.5,0.546875 0.53125,0.546875 0.171875,0 0.515625,-0.109375 0.515625,-0.53125 0,-0.25 -0.1875,-0.515625 -0.53125,-0.515625 -0.078125,0 -0.09375,0 -0.125,0.015625 0.21875,-0.65625 0.765625,-1.015625 1.34375,-1.015625 0.90625,0 1.328125,0.8125 1.328125,1.625 C 3.5625,-3.90625 3.078125,-3.125 2.515625,-2.5 l -1.90625,2.125 C 0.5,-0.265625 0.5,-0.234375 0.5,0 H 4.203125 L 4.46875,-1.734375 H 4.234375 C 4.171875,-1.4375 4.109375,-1 4,-0.84375 3.9375,-0.765625 3.28125,-0.765625 3.0625,-0.765625 Z m 0,0"
             id="path13" />
        </g>
        <g
           id="use8"
           transform="translate(26.669813,8.8520002)">
          <path
             d="m 4.46875,-2 c 0,-1.1875 -0.8125,-2.1875 -1.890625,-2.1875 -0.46875,0 -0.90625,0.15625 -1.265625,0.515625 V -5.625 c 0.203125,0.0625 0.53125,0.125 0.84375,0.125 1.234375,0 1.9375,-0.90625 1.9375,-1.03125 0,-0.0625 -0.03125,-0.109375 -0.109375,-0.109375 0,0 -0.03125,0 -0.078125,0.03125 C 3.703125,-6.515625 3.21875,-6.3125 2.546875,-6.3125 2.15625,-6.3125 1.6875,-6.390625 1.21875,-6.59375 1.140625,-6.625 1.125,-6.625 1.109375,-6.625 1,-6.625 1,-6.546875 1,-6.390625 V -3.4375 c 0,0.171875 0,0.25 0.140625,0.25 0.078125,0 0.09375,-0.015625 0.140625,-0.078125 C 1.390625,-3.421875 1.75,-3.96875 2.5625,-3.96875 c 0.515625,0 0.765625,0.453125 0.84375,0.640625 0.15625,0.375 0.1875,0.75 0.1875,1.25 0,0.359375 0,0.953125 -0.25,1.375 C 3.109375,-0.3125 2.734375,-0.0625 2.28125,-0.0625 c -0.71875,0 -1.296875,-0.53125 -1.46875,-1.109375 0.03125,0 0.0625,0.015625 0.171875,0.015625 0.328125,0 0.5,-0.25 0.5,-0.484375 0,-0.25 -0.171875,-0.5 -0.5,-0.5 C 0.84375,-2.140625 0.5,-2.0625 0.5,-1.609375 0.5,-0.75 1.1875,0.21875 2.296875,0.21875 3.453125,0.21875 4.46875,-0.734375 4.46875,-2 Z m 0,0"
             id="path14" />
        </g>
      </g>
      <g
         fill="#000000"
         fill-opacity="1"
         id="g9"
         transform="matrix(0.352778,0,0,0.352778,-0.846402,-0.706482)">
        <g
           id="use9"
           transform="translate(31.649,5.237)">
          <path
             d="m 3.53125,-1.734375 c 0,-0.84375 -0.671875,-1.5 -1.5,-1.5 -0.828125,0 -1.5,0.671875 -1.5,1.484375 0,0.84375 0.6875,1.5 1.5,1.5 0.84375,0 1.5,-0.671875 1.5,-1.484375 z m -1.5,1.140625 C 1.375,-0.59375 0.875,-1.125 0.875,-1.734375 c 0,-0.65625 0.515625,-1.171875 1.15625,-1.171875 0.65625,0 1.15625,0.53125 1.15625,1.15625 0,0.65625 -0.515625,1.15625 -1.15625,1.15625 z m 0,0"
             id="path15" />
        </g>
      </g>
    </g>
    <path
       style="fill:none;fill-opacity:1;stroke:#000000;stroke-width:0.192;stroke-dasharray:none;stroke-dashoffset:0;stroke-opacity:1;marker-start:url(#Triangle);marker-end:url(#marker17)"
       d="M 53.179842,38.282263 103.01901,49.116866 76.113083,36.025052"
       id="path16" />
    <text
       xml:space="preserve"
       style="font-size:3.90239px;font-family:BaskervilleF;-inkscape-font-specification:'BaskervilleF, Normal';font-variant-position:sub;text-align:start;writing-mode:lr-tb;direction:ltr;text-anchor:start;fill:#000000;fill-opacity:1;stroke:none;stroke-width:0.192;stroke-dasharray:none;stroke-dashoffset:0;stroke-opacity:1"
       x="103.74132"
       y="50.742054"
       id="text17"><tspan
         sodipodi:role="line"
         id="tspan17"
         style="fill:#000000;fill-opacity:1;stroke:none;stroke-width:0.192"
         x="103.74132"
         y="50.742054">objektiva</tspan></text>
    <text
       xml:space="preserve"
       style="font-size:3.90239px;font-family:BaskervilleF;-inkscape-font-specification:'BaskervilleF, Normal';font-variant-position:sub;text-align:start;writing-mode:lr-tb;direction:ltr;text-anchor:start;fill:#000000;fill-opacity:1;stroke:none;stroke-width:0.192;stroke-dasharray:none;stroke-dashoffset:0;stroke-opacity:1"
       x="54.624454"
       y="76.113083"
       id="text18"><tspan
         sodipodi:role="line"
         id="tspan18"
         style="stroke-width:0.192"
         x="54.624454"
         y="76.113083">fotoplošča</tspan></text>
  </g>
</svg>
